<svg height="512pt" viewBox="0 0 512 512" width="512pt" xmlns="http://www.w3.org/2000/svg"><path d="m143 98h215v158h-215zm0 0" fill="#ffd659"/><path d="m328 98h30v157.917969h-30zm0 0" fill="#ffbd54"/><path d="m420 504.5h-328c-27.613281 0-50-22.386719-50-50v-178.5h428v178.5c0 27.613281-22.386719 50-50 50zm0 0" fill="#fe5555"/><path d="m440 276v178.5c0 27.613281-22.386719 50-50 50h30c27.613281 0 50-22.386719 50-50v-178.5zm0 0" fill="#e84141"/><g fill="#60d9fe"><path d="m256 459c-8.285156 0-15-6.714844-15-15v-114c0-8.285156 6.714844-15 15-15s15 6.714844 15 15v114c0 8.285156-6.714844 15-15 15zm0 0"/><path d="m186 459c-8.285156 0-15-6.714844-15-15v-114c0-8.285156 6.714844-15 15-15s15 6.714844 15 15v114c0 8.285156-6.714844 15-15 15zm0 0"/><path d="m116 459c-8.285156 0-15-6.714844-15-15v-114c0-8.285156 6.714844-15 15-15s15 6.714844 15 15v114c0 8.285156-6.714844 15-15 15zm0 0"/><path d="m326 459c-8.285156 0-15-6.714844-15-15v-114c0-8.285156 6.714844-15 15-15s15 6.714844 15 15v114c0 8.285156-6.714844 15-15 15zm0 0"/><path d="m396 459c-8.285156 0-15-6.714844-15-15v-114c0-8.285156 6.714844-15 15-15s15 6.714844 15 15v114c0 8.285156-6.714844 15-15 15zm0 0"/></g><path d="m453 256h-95v-110c0-11.046875 8.953125-20 20-20h55c11.046875 0 20 8.953125 20 20zm0 0" fill="#bdf9ff"/><path d="m433 126h-30c11.046875 0 20 8.953125 20 20v110h30v-110c0-11.046875-8.953125-20-20-20zm0 0" fill="#8cf2ff"/><path d="m388 259.058594v-35c0-9.664063 7.835938-17.5 17.5-17.5s17.5 7.835937 17.5 17.5v35c0 9.667968-7.835938 17.5-17.5 17.5s-17.5-7.832032-17.5-17.5zm0 0" fill="#ffd659"/><path d="m390.5 92h30v34h-30zm0 0" fill="#ffd659"/><path d="m59 166h178v90h-178zm0 0" fill="#60d9fe"/><path d="m207 166h30v90h-30zm0 0" fill="#40ccf7"/><path d="m345.78125 278.472656c-8.003906 2.144532-16.226562-2.605468-18.371094-10.605468l-64.707031-241.480469c-2.144531-8.003907 2.605469-16.226563 10.609375-18.371094 8-2.144531 16.226562 2.605469 18.371094 10.605469l64.703125 241.480468c2.144531 8.003907-2.605469 16.226563-10.605469 18.371094zm0 0" fill="#fe5555"/><path d="m166.21875 278.472656c8.003906 2.144532 16.226562-2.605468 18.371094-10.605468l64.707031-241.480469c2.144531-8.003907-2.605469-16.226563-10.609375-18.371094-8-2.144531-16.226562 2.605469-18.371094 10.605469l-64.703125 241.480468c-2.144531 8.003907 2.605469 16.226563 10.605469 18.371094zm0 0" fill="#fe5555"/><path d="m489.5 286h-467c-8.285156 0-15-6.714844-15-15s6.714844-15 15-15h467c8.285156 0 15 6.714844 15 15s-6.714844 15-15 15zm0 0" fill="#e84141"/><path d="m489.5 256h-30c8.285156 0 15 6.714844 15 15s-6.714844 15-15 15h30c8.285156 0 15-6.714844 15-15s-6.714844-15-15-15zm0 0" fill="#de4121"/><path d="m351.75 497h-259.75c-23.433594 0-42.5-19.066406-42.5-42.5v-102.5c0-4.140625-3.359375-7.5-7.5-7.5s-7.5 3.359375-7.5 7.5v102.5c0 31.707031 25.792969 57.5 57.5 57.5h259.75c4.140625 0 7.5-3.359375 7.5-7.5s-3.359375-7.5-7.5-7.5zm0 0"/><path d="m278.5 444v-114c0-12.40625-10.09375-22.5-22.5-22.5s-22.5 10.09375-22.5 22.5v114c0 12.40625 10.09375 22.5 22.5 22.5s22.5-10.09375 22.5-22.5zm-30 0v-114c0-4.136719 3.363281-7.5 7.5-7.5s7.5 3.363281 7.5 7.5v114c0 4.136719-3.363281 7.5-7.5 7.5s-7.5-3.363281-7.5-7.5zm0 0"/><path d="m208.5 444v-114c0-12.40625-10.09375-22.5-22.5-22.5s-22.5 10.09375-22.5 22.5v114c0 12.40625 10.09375 22.5 22.5 22.5s22.5-10.09375 22.5-22.5zm-30 0v-114c0-4.136719 3.363281-7.5 7.5-7.5s7.5 3.363281 7.5 7.5v114c0 4.136719-3.363281 7.5-7.5 7.5s-7.5-3.363281-7.5-7.5zm0 0"/><path d="m138.5 444v-114c0-12.40625-10.09375-22.5-22.5-22.5s-22.5 10.09375-22.5 22.5v114c0 12.40625 10.09375 22.5 22.5 22.5s22.5-10.09375 22.5-22.5zm-30 0v-114c0-4.136719 3.363281-7.5 7.5-7.5s7.5 3.363281 7.5 7.5v114c0 4.136719-3.363281 7.5-7.5 7.5s-7.5-3.363281-7.5-7.5zm0 0"/><path d="m348.5 444v-114c0-12.40625-10.09375-22.5-22.5-22.5s-22.5 10.09375-22.5 22.5v114c0 12.40625 10.09375 22.5 22.5 22.5s22.5-10.09375 22.5-22.5zm-30 0v-114c0-4.136719 3.363281-7.5 7.5-7.5s7.5 3.363281 7.5 7.5v114c0 4.136719-3.363281 7.5-7.5 7.5s-7.5-3.363281-7.5-7.5zm0 0"/><path d="m396 466.5c12.40625 0 22.5-10.09375 22.5-22.5v-114c0-12.40625-10.09375-22.5-22.5-22.5s-22.5 10.09375-22.5 22.5v114c0 12.40625 10.09375 22.5 22.5 22.5zm-7.5-136.5c0-4.136719 3.363281-7.5 7.5-7.5s7.5 3.363281 7.5 7.5v114c0 4.136719-3.363281 7.5-7.5 7.5s-7.5-3.363281-7.5-7.5zm0 0"/><path d="m489.5 248.5h-29v-56.332031c0-4.144531-3.359375-7.5-7.5-7.5s-7.5 3.355469-7.5 7.5v56.332031h-15v-24.441406c0-6.671875-2.601562-12.949219-7.328125-17.671875-4.722656-4.722657-11-7.328125-17.671875-7.328125-13.785156 0-25 11.214844-25 25v24.441406h-15v-102.5c0-6.894531 5.605469-12.5 12.5-12.5h55c6.894531 0 12.5 5.605469 12.5 12.5v14c0 4.140625 3.359375 7.5 7.5 7.5s7.5-3.359375 7.5-7.5v-14c0-15.164062-12.335938-27.5-27.5-27.5h-5v-26.5c0-4.140625-3.359375-7.5-7.5-7.5h-30c-4.140625 0-7.5 3.359375-7.5 7.5v26.5h-5c-4.5 0-8.746094 1.09375-12.5 3.019531v-23.519531c0-4.140625-3.359375-7.5-7.5-7.5h-39.292969l-19.78125-73.816406c-2.625-9.824219-11.558593-16.683594-21.726562-16.683594-9.496094 0-17.972657 5.941406-21.199219 14.988281-3.210938-9.011719-11.664062-14.988281-21.199219-14.988281-10.167969 0-19.101562 6.859375-21.726562 16.679688l-19.78125 73.820312h-50.292969c-4.140625 0-7.5 3.359375-7.5 7.5v60.5h-76.5c-4.140625 0-7.5 3.359375-7.5 7.5v82.5h-29c-12.40625 0-22.5 10.09375-22.5 22.5s10.09375 22.5 22.5 22.5h12v26.5c0 4.140625 3.359375 7.5 7.5 7.5s7.5-3.359375 7.5-7.5v-26.5h413v161c0 23.433594-19.066406 42.5-42.5 42.5h-36c-4.140625 0-7.5 3.359375-7.5 7.5s3.359375 7.5 7.5 7.5h36c31.707031 0 57.5-25.792969 57.5-57.5v-161h12c12.40625 0 22.5-10.09375 22.5-22.5s-10.09375-22.5-22.5-22.5zm-91.5-149h15v19h-15zm-2.5 124.558594c0-5.511719 4.484375-10 10-10 2.664062 0 5.175781 1.042968 7.066406 2.933594 1.894532 1.890624 2.933594 4.402343 2.933594 7.066406v24.441406h-20zm-45-118.558594v103.648438l-27.773438-103.648438zm-75.242188-90.246094c3.957032-1.066406 8.101563 1.28125 9.175782 5.308594l61.082031 227.9375h-15.53125l-60.039063-224.046875c-1.066406-4 1.316407-8.125 5.3125-9.199219zm-57.617187 158.246094h11.859375v75h-31.957031zm19.359375-15h-15.339844l14.203125-53h40.273438l38.320312 143h-69.957031v-82.5c0-4.140625-3.359375-7.5-7.5-7.5zm19-128.136719 16.113281 60.136719h-32.230469zm-28.433594-9.808593c1.070313-4.011719 5.207032-6.367188 9.175782-5.300782 3.996093 1.074219 6.378906 5.199219 5.3125 9.195313l-60.039063 224.050781h-15.53125zm-77.066406 84.945312h38.773438l-14.203126 53h-24.570312zm-84 68h104.550781l-20.097656 75c-8.5 0-71.015625 0-84.453125 0zm423 105h-467c-4.136719 0-7.5-3.363281-7.5-7.5s3.363281-7.5 7.5-7.5h467c4.136719 0 7.5 3.363281 7.5 7.5s-3.363281 7.5-7.5 7.5zm0 0"/></svg>